<?xml version="1.0" encoding="utf-8"?>
<!-- Generator: Adobe Illustrator 16.0.0, SVG Export Plug-In . SVG Version: 6.00 Build 0)  -->
<!DOCTYPE svg PUBLIC "-//W3C//DTD SVG 1.1//EN" "http://www.w3.org/Graphics/SVG/1.1/DTD/svg11.dtd">
<svg version="1.1" id="Layer_1" xmlns="http://www.w3.org/2000/svg" xmlns:xlink="http://www.w3.org/1999/xlink" x="0px" y="0px"
	 width="612px" height="381.45px" viewBox="0 0 612 381.45" enable-background="new 0 0 612 381.45" xml:space="preserve">
<g>
	<rect fill="#010002" width="611.891" height="381.45"/>
	<polygon fill="none" points="295.524,249.89 99.406,152.434 121.309,141.551 130.09,152.434 303.704,238.707 	"/>
	<polygon fill="none" points="329.395,86.646 315.738,87.503 315.738,244.686 307.06,255.625 329.395,266.722 	"/>
	<polygon fill="none" points="139.424,147.795 315.738,60.18 329.395,38.144 131.877,136.297 	"/>
	<polygon fill="none" points="316.366,54.976 512.484,152.434 490.581,163.317 481.8,152.434 308.185,66.158 	"/>
	<polygon fill="none" points="282.496,218.22 296.152,217.362 296.152,60.18 304.831,49.243 282.496,38.144 	"/>
	<g>
		<path fill="#F8F8F8" d="M121.502,365.084c-0.215,0.479-0.539,1.23-0.618,1.388c-0.135,0.242-0.428,0.51-1.046,0.51h-4.618V348.2
			h1.343c0.321,0.026,0.589,0.263,0.589,0.583v16.301H121.502z"/>
		<path fill="#F8F8F8" d="M135.639,366.981h-2.121l-1.691-12.931l-1.69,12.931h-2.123l2.847-18.781h1.046
			c0.807,0,0.939,0.51,1.02,1.015L135.639,366.981z"/>
		<path fill="#F8F8F8" d="M148.407,352.921v-2.172c0-0.594-0.457-1.051-1.02-1.051c-0.564,0-1.02,0.457-1.02,1.051v1.798
			c0,1.099,0.832,2.523,0.832,2.523l2.308,4.347c0.939,1.72,0.858,2.976,0.858,2.976v2.392c0,1.314-1.073,2.387-2.416,2.387h-1.207
			c-1.291-0.053-2.31-1.099-2.336-2.387v-1.935c0-0.614,0.297-0.914,0.539-1.046c0.161-0.053,0.938-0.404,1.422-0.615v3.27
			c0,0.563,0.456,1.021,1.02,1.021c0.563,0,1.02-0.458,1.02-1.041v-2.149c0-1.1-0.83-2.545-0.83-2.545l-2.311-4.326
			c-0.938-1.719-0.859-2.98-0.859-2.98v-1.934c0-1.314,1.075-2.497,2.417-2.497h1.208c1.288,0.031,2.334,1.209,2.334,2.497v0.725
			c0,0.62-0.294,0.915-0.537,1.052C149.669,352.358,148.917,352.71,148.407,352.921z"/>
		<path fill="#F8F8F8" d="M167.268,365.084c-0.216,0.479-0.537,1.23-0.618,1.388c-0.134,0.242-0.431,0.51-1.047,0.51h-4.296v-18.245
			c0.029-0.3,0.271-0.536,0.591-0.536h5.02l-0.644,1.393c-0.106,0.242-0.402,0.536-1.02,0.536h-1.557
			c-0.27,0-0.456,0.189-0.456,0.458v5.582h2.899c-0.215,0.483-0.537,1.262-0.618,1.425c-0.134,0.236-0.402,0.51-1.02,0.51h-0.806
			c-0.24,0-0.456,0.21-0.456,0.457v6.523H167.268z"/>
		<path fill="#F8F8F8" d="M180.547,366.981v-6.87c0-0.909-0.485-1.204-0.995-1.204h-1.02v8.074h-1.932V348.2h3.517
			c1.287,0,2.36,1.041,2.36,2.36v5.798c0,0,0.082,1.472-0.698,1.666c0.753,0.373,0.698,1.767,0.698,1.767v7.19H180.547z
			 M179.552,357.084c0.51,0,0.995-0.216,0.995-1.072v-5.052c0-0.694-0.485-0.968-0.995-0.968h-1.02v7.092H179.552z"/>
		<path fill="#F8F8F8" d="M214.779,364.784c0,1.288-1.02,2.334-2.31,2.387h-1.18c-1.34,0-2.416-1.072-2.416-2.387v-14.387
			c0-1.314,1.075-2.392,2.416-2.392h1.18c1.291,0.031,2.31,1.104,2.31,2.392v2.87c0,0.62-0.271,0.914-0.51,1.024l-1.396,0.642v-4.21
			c0-0.568-0.458-1.025-1.047-1.025c-0.564,0-1.02,0.457-1.02,1.025v13.714c0,0.583,0.456,1.041,1.02,1.041
			c0.59,0,1.047-0.458,1.047-1.041v-2.523c0-0.62,0.268-0.914,0.51-1.046c0.16-0.084,0.91-0.404,1.396-0.62V364.784z"/>
		<path fill="#F8F8F8" d="M230.956,364.784c0,1.288-1.049,2.25-2.311,2.281v0.032h-1.477c-1.316,0-2.386-0.999-2.386-2.313v-16.048
			c0.023-0.3,0.265-0.536,0.563-0.536h1.369v16.237c0,0.563,0.428,1.02,0.994,1.02h0.294c0.562,0,1.02-0.457,1.02-1.02V348.2h1.935
			V364.784z"/>
		<path fill="#F8F8F8" d="M247.106,349.593c-0.107,0.242-0.405,0.51-1.022,0.51h-1.5c-0.271,0-0.458,0.216-0.486,0.458v16.421
			h-1.367c-0.457,0-0.539-0.268-0.539-0.404v-16.475h-2.71v-1.319c0-0.32,0.271-0.583,0.591-0.583h7.677L247.106,349.593z"/>
		<path fill="#F8F8F8" d="M293.863,353.325c0,0.646-0.266,0.909-0.536,1.046c-0.134,0.079-0.886,0.432-1.396,0.642v-4.289
			c0-0.568-0.458-1.025-1.017-1.025c-0.565,0-1.022,0.457-1.022,1.025v13.734c0,0.563,0.458,1.021,1.022,1.021
			c0.56,0,1.017-0.458,1.017-1.021v-5.603h-0.079c-0.431,0-0.699-0.621-0.699-0.621l-0.644-1.34h2.413
			c0.591,0,0.941,0.32,0.941,1.046v6.844c0,1.288-1.043,2.334-2.331,2.387h-1.183c-1.314,0-2.389-1.072-2.389-2.387v-14.387
			c0-1.314,1.075-2.392,2.389-2.392h1.183c1.288,0.058,2.331,1.104,2.331,2.392V353.325z"/>
		<path fill="#F8F8F8" d="M307.972,366.981v-6.87c0-0.909-0.48-1.204-0.996-1.204h-1.017v8.074h-1.934V348.2h3.519
			c1.286,0,2.36,1.041,2.36,2.36v5.798c0,0,0.084,1.472-0.696,1.666c0.752,0.373,0.696,1.767,0.696,1.767v7.19H307.972z
			 M306.976,357.084c0.516,0,0.996-0.216,0.996-1.072v-5.052c0-0.694-0.48-0.968-0.996-0.968h-1.017v7.092H306.976z"/>
		<path fill="#F8F8F8" d="M326.38,366.981h-2.126l-1.689-12.931l-1.693,12.931h-2.118l2.844-18.781h1.049
			c0.81,0,0.943,0.51,1.02,1.015L326.38,366.981z"/>
		<path fill="#F8F8F8" d="M339.038,348.2c1.288,0,2.441,1.041,2.441,2.36v4.856c0,1.83-0.883,3.144-2.733,3.144h-1.159v8.421h-1.369
			c-0.457,0-0.533-0.268-0.533-0.404V348.2H339.038z M339.629,350.907c-0.052-0.51-0.486-0.915-1.017-0.915h-1.025v6.771h1.025
			c0.53,0,0.965-0.404,1.017-0.914V350.907z"/>
		<path fill="#F8F8F8" d="M356.666,348.2c0.591,0,0.777,0.426,0.777,0.746v18.035h-1.929v-8.179
			c-0.031-0.242-0.219-0.432-0.457-0.432h-2.098v8.61h-1.93v-18.035c0-0.32,0.187-0.746,0.778-0.746h1.151v7.59
			c0,0.542,0.218,0.679,0.676,0.679h1.879V348.2H356.666z"/>
		<path fill="#F8F8F8" d="M369.166,348.2c0.563,0,0.777,0.426,0.777,0.746v18.035h-1.369c-0.454,0-0.539-0.268-0.56-0.404V348.2
			H369.166z"/>
		<path fill="#F8F8F8" d="M386.743,364.784c0,1.288-1.027,2.334-2.313,2.387h-1.183c-1.341,0-2.413-1.072-2.413-2.387v-14.387
			c0-1.314,1.072-2.392,2.413-2.392h1.183c1.285,0.031,2.313,1.104,2.313,2.392v2.87c0,0.62-0.271,0.914-0.51,1.024l-1.4,0.642
			v-4.21c0-0.568-0.455-1.025-1.049-1.025c-0.56,0-1.018,0.457-1.018,1.025v13.714c0,0.583,0.458,1.041,1.018,1.041
			c0.594,0,1.049-0.458,1.049-1.041v-2.523c0-0.62,0.271-0.914,0.51-1.046c0.165-0.084,0.912-0.404,1.4-0.62V364.784z"/>
		<path fill="#F8F8F8" d="M416.593,348.2c1.316,0,2.365,1.041,2.389,2.36v14.066c-0.023,1.309-1.072,2.354-2.389,2.354h-3.727V348.2
			H416.593z M417.079,351.097c0-0.699-0.486-0.968-1.025-0.968h-1.256v14.955h1.256c0.539,0,1.025-0.273,1.025-0.999V351.097z"/>
		<path fill="#F8F8F8" d="M435.808,365.084c-0.215,0.479-0.538,1.23-0.62,1.388c-0.137,0.242-0.429,0.51-1.049,0.51h-4.289v-18.245
			c0.023-0.3,0.263-0.536,0.584-0.536h5.022l-0.645,1.393c-0.103,0.242-0.401,0.536-1.017,0.536h-1.557
			c-0.271,0-0.457,0.189-0.457,0.458v5.582h2.896c-0.216,0.483-0.539,1.262-0.615,1.425c-0.134,0.236-0.402,0.51-1.024,0.51h-0.8
			c-0.247,0-0.457,0.21-0.457,0.457v6.523H435.808z"/>
		<path fill="#F8F8F8" d="M449.133,352.921v-2.172c0-0.594-0.457-1.051-1.02-1.051s-1.017,0.457-1.017,1.051v1.798
			c0,1.099,0.83,2.523,0.83,2.523l2.305,4.347c0.944,1.72,0.862,2.976,0.862,2.976v2.392c0,1.314-1.072,2.387-2.418,2.387h-1.206
			c-1.288-0.053-2.306-1.099-2.334-2.387v-1.935c0-0.614,0.292-0.914,0.539-1.046c0.157-0.053,0.936-0.404,1.422-0.615v3.27
			c0,0.563,0.454,1.021,1.017,1.021s1.02-0.458,1.02-1.041v-2.149c0-1.1-0.833-2.545-0.833-2.545l-2.305-4.326
			c-0.943-1.719-0.859-2.98-0.859-2.98v-1.934c0-1.314,1.069-2.497,2.415-2.497h1.207c1.287,0.031,2.336,1.209,2.336,2.497v0.725
			c0,0.62-0.294,0.915-0.541,1.052C450.397,352.358,449.641,352.71,449.133,352.921z"/>
		<path fill="#F8F8F8" d="M463.055,348.2c0.568,0,0.778,0.426,0.778,0.746v18.035h-1.369c-0.457,0-0.531-0.268-0.563-0.404V348.2
			H463.055z"/>
		<path fill="#F8F8F8" d="M480.712,366.981h-0.883c-1.049,0-1.212-0.83-1.296-1.203l-2.066-9.289v10.492h-1.929V348.2h0.883
			c1.078,0,1.265,0.51,1.369,1.041l1.99,9.771V348.2h1.932V366.981z"/>
		<path fill="#F8F8F8" d="M496.671,353.325c0,0.646-0.261,0.909-0.531,1.046c-0.134,0.079-0.891,0.432-1.4,0.642v-4.289
			c0-0.568-0.458-1.025-1.018-1.025s-1.018,0.457-1.018,1.025v13.734c0,0.563,0.458,1.021,1.018,1.021s1.018-0.458,1.018-1.021
			v-5.603h-0.074c-0.434,0-0.704-0.621-0.704-0.621l-0.644-1.34h2.418c0.591,0,0.936,0.32,0.936,1.046v6.844
			c0,1.288-1.041,2.334-2.326,2.387h-1.183c-1.319,0-2.39-1.072-2.39-2.387v-14.387c0-1.314,1.07-2.392,2.39-2.392h1.183
			c1.285,0.058,2.326,1.104,2.326,2.392V353.325z"/>
		<path fill="#FEFEFE" d="M269.224,357.562c0,0.295-0.092,0.521-0.276,0.689c-0.181,0.162-0.402,0.247-0.66,0.247
			c-0.257,0-0.478-0.085-0.66-0.247c-0.187-0.169-0.276-0.395-0.276-0.689c0-0.257,0.089-0.468,0.276-0.636
			c0.182-0.163,0.402-0.247,0.66-0.247c0.258,0,0.479,0.084,0.66,0.247C269.131,357.094,269.224,357.305,269.224,357.562z"/>
	</g>
	<g>
		<polygon fill="none" points="295.524,250.502 99.406,153.046 121.309,142.165 130.09,153.046 303.704,239.321 		"/>
		<polygon fill="none" points="329.395,87.261 315.735,88.118 315.735,245.298 307.06,256.237 329.395,267.334 		"/>
		<polygon fill="none" points="139.424,148.41 315.735,60.794 329.395,38.759 131.877,136.909 		"/>
		<polygon fill="#F8F7FA" points="139.424,148.41 131.877,136.909 329.395,38.759 315.735,60.794 		"/>
		<polygon fill="#FAFAFA" points="329.395,87.261 329.395,267.334 307.06,256.237 315.735,245.298 315.735,88.118 		"/>
		<polygon fill="#FFFFFF" points="295.524,250.502 99.406,153.046 121.309,142.165 130.09,153.046 303.704,239.321 		"/>
		<polygon fill="#696968" points="480.013,169.184 472.467,157.683 296.152,245.298 282.496,267.334 		"/>
		<linearGradient id="SVGID_1_" gradientUnits="userSpaceOnUse" x1="279.8042" y1="128.7959" x2="323.5265" y2="128.7959">
			<stop  offset="0" style="stop-color:#FFFFFF"/>
			<stop  offset="0.0123" style="stop-color:#D8EDF1"/>
			<stop  offset="0.0263" style="stop-color:#B4DBE4"/>
			<stop  offset="0.042" style="stop-color:#94CCD8"/>
			<stop  offset="0.0594" style="stop-color:#78BFCE"/>
			<stop  offset="0.0791" style="stop-color:#62B5C6"/>
			<stop  offset="0.102" style="stop-color:#51ADC0"/>
			<stop  offset="0.1304" style="stop-color:#46A7BC"/>
			<stop  offset="0.1702" style="stop-color:#3FA4BA"/>
			<stop  offset="0.2808" style="stop-color:#3DA3B9"/>
			<stop  offset="0.4877" style="stop-color:#CDD0AB"/>
			<stop  offset="0.7537" style="stop-color:#A24778"/>
			<stop  offset="0.9458" style="stop-color:#42264D"/>
		</linearGradient>
		<polygon fill="url(#SVGID_1_)" points="282.496,218.832 296.152,217.975 296.152,60.794 304.831,49.855 282.496,38.759 		"/>
		<linearGradient id="SVGID_2_" gradientUnits="userSpaceOnUse" x1="252.3384" y1="109.7617" x2="456.6382" y2="109.7617">
			<stop  offset="0" style="stop-color:#FFFFFF"/>
			<stop  offset="0.0123" style="stop-color:#D8EDF1"/>
			<stop  offset="0.0263" style="stop-color:#B4DBE4"/>
			<stop  offset="0.042" style="stop-color:#94CCD8"/>
			<stop  offset="0.0594" style="stop-color:#78BFCE"/>
			<stop  offset="0.0791" style="stop-color:#62B5C6"/>
			<stop  offset="0.102" style="stop-color:#51ADC0"/>
			<stop  offset="0.1304" style="stop-color:#46A7BC"/>
			<stop  offset="0.1702" style="stop-color:#3FA4BA"/>
			<stop  offset="0.2808" style="stop-color:#3DA3B9"/>
			<stop  offset="0.4877" style="stop-color:#CDD0AB"/>
			<stop  offset="0.7537" style="stop-color:#A24778"/>
			<stop  offset="0.9458" style="stop-color:#42264D"/>
		</linearGradient>
		<polygon fill="url(#SVGID_2_)" points="316.366,55.591 308.185,66.771 481.8,153.046 490.584,163.933 512.484,153.046 		"/>
		<polygon fill="none" points="316.366,55.591 512.484,153.046 490.584,163.933 481.8,153.046 308.185,66.771 		"/>
		<polygon fill="none" points="282.496,218.832 296.152,217.975 296.152,60.794 304.831,49.855 282.496,38.759 		"/>
		<linearGradient id="SVGID_3_" gradientUnits="userSpaceOnUse" x1="269.0391" y1="212.5088" x2="466.5557" y2="212.5088">
			<stop  offset="0" style="stop-color:#FFFFFF"/>
			<stop  offset="0.0123" style="stop-color:#D8EDF1"/>
			<stop  offset="0.0263" style="stop-color:#B4DBE4"/>
			<stop  offset="0.042" style="stop-color:#94CCD8"/>
			<stop  offset="0.0594" style="stop-color:#78BFCE"/>
			<stop  offset="0.0791" style="stop-color:#62B5C6"/>
			<stop  offset="0.102" style="stop-color:#51ADC0"/>
			<stop  offset="0.1304" style="stop-color:#46A7BC"/>
			<stop  offset="0.1702" style="stop-color:#3FA4BA"/>
			<stop  offset="0.2808" style="stop-color:#3DA3B9"/>
			<stop  offset="0.4877" style="stop-color:#CDD0AB"/>
			<stop  offset="0.7537" style="stop-color:#A24778"/>
			<stop  offset="0.9458" style="stop-color:#42264D"/>
		</linearGradient>
		<polygon fill="url(#SVGID_3_)" points="480.013,169.184 472.467,157.683 296.152,245.298 282.496,267.334 		"/>
	</g>
	<g>
		<path fill="#FFFFFF" d="M173.829,295.099c-0.873,0-1.746,0-2.62,0c-0.943-1.543-1.889-3.086-2.833-4.628c0,1.542,0,3.085,0,4.628
			c-1.152,0-2.305,0-3.458,0c0-2.794,0-5.593,0-8.387c0-0.73,0.393-1.223,1.18-1.479c0.887-0.14,1.604,0.097,2.147,0.707
			C170.108,288.993,171.969,292.047,173.829,295.099z"/>
		<path fill="#FFFFFF" d="M197.225,295.099c-1.155,0-2.312,0-3.468,0c-0.008-2.794-0.016-5.59-0.024-8.384
			c0-0.416,0.157-0.768,0.471-1.064c0.313-0.295,0.695-0.444,1.146-0.444c0.533,0,0.975,0.163,1.322,0.494
			c0.346,0.328,0.519,0.665,0.519,1.012C197.203,289.506,197.213,292.305,197.225,295.099z"/>
		<path fill="#FFFFFF" d="M251.272,332.698c-0.667,0-1.114-0.268-1.346-0.799c-1.582-3.167-3.167-6.331-4.752-9.501
			c-11.17,0-22.34,0-33.509,0c-1.674,3.17-3.347,6.334-5.02,9.501c-0.502,0.736-1.275,0.941-2.32,0.618
			c-0.741-0.468-0.968-1.106-0.679-1.914c5.409-10.258,10.816-20.516,16.223-30.771c1.093,0,2.187,0,3.28,0
			c-3.391,6.466-6.781,12.932-10.171,19.399c10.355,0,20.706,0,31.061,0c-3.214-6.468-6.426-12.934-9.641-19.399
			c1.067,0,2.134,0,3.199,0c5.102,10.206,10.206,20.411,15.31,30.617c0.352,0.886,0.076,1.576-0.825,2.073
			C251.851,332.638,251.577,332.698,251.272,332.698z"/>
		<path fill="#FFFFFF" d="M473.342,295.099c1.701-3.217,3.396-6.437,5.094-9.656c0.329-0.525,0.783-0.791,1.367-0.791
			c0.757,0,1.329,0.368,1.731,1.099c1.559,3.117,3.117,6.234,4.673,9.349c-1.062,0-2.12,0-3.18,0
			c-1.044-2.095-2.084-4.192-3.125-6.284c-1.099,2.092-2.197,4.189-3.293,6.284C475.519,295.099,474.431,295.099,473.342,295.099z"
			/>
		<path fill="#FFFFFF" d="M495.015,319.231c-3.212-6.468-6.426-12.934-9.638-19.399c1.064,0,2.132,0,3.198,0
			c5.102,10.206,10.206,20.411,15.308,30.617c0.35,0.886,0.076,1.576-0.825,2.073c-0.231,0.115-0.505,0.176-0.81,0.176
			c-0.668,0-1.114-0.268-1.346-0.799c-1.582-3.167-3.167-6.331-4.752-9.501c-11.17,0-22.341,0-33.511,0
			c-1.671,3.17-3.343,6.334-5.02,9.501c-0.5,0.736-1.272,0.941-2.315,0.618c-0.744-0.468-0.97-1.106-0.684-1.914
			c5.409-10.258,10.82-20.516,16.227-30.771c1.091,0,2.187,0,3.277,0c-3.39,6.466-6.78,12.932-10.171,19.399
			C474.31,319.231,484.659,319.231,495.015,319.231z"/>
		<path fill="#FFFFFF" d="M193.854,327.944c-0.026-9.373-0.055-18.742-0.083-28.112c1.158,0,2.315,0,3.473,0
			c0.043,10.671,0.086,21.342,0.131,32.015c0,0.681-0.462,1.181-1.388,1.501c-0.175,0-0.351,0-0.527,0
			c-0.651,0-1.119-0.302-1.4-0.912c-6.652-10.867-13.304-21.735-19.956-32.604c0.87,0,1.74,0,2.61,0
			C182.429,309.202,188.14,318.571,193.854,327.944z"/>
		<path fill="#FFFFFF" d="M235.229,295.099c-1.057,0-2.118,0-3.18,0c-1.041-2.095-2.082-4.192-3.123-6.284
			c-1.099,2.092-2.197,4.189-3.296,6.284c-1.088,0-2.176,0-3.264,0c1.698-3.217,3.396-6.437,5.094-9.656
			c0.326-0.525,0.783-0.791,1.367-0.791c0.757,0,1.33,0.368,1.729,1.099C232.118,288.867,233.673,291.984,235.229,295.099z"/>
		<path fill="#FFFFFF" d="M443.903,286.021c0.145-0.323,0.407-0.563,0.785-0.709c0.382-0.15,0.783-0.171,1.199-0.066
			c0.943,0.213,1.414,0.699,1.414,1.467c0,2.794,0,5.593,0,8.387c-1.151,0-2.303,0-3.457,0c0-1.391,0-2.78,0-4.174
			c-0.754,1.394-1.511,2.783-2.265,4.174c-0.91,0-1.822,0-2.736,0C440.531,292.073,442.219,289.046,443.903,286.021z"/>
		<path fill="#FFFFFF" d="M443.845,299.832c1.154,0,2.306,0,3.457,0c0,10.671,0,21.342,0,32.015c0,0.357-0.169,0.697-0.508,1.021
			c-0.336,0.32-0.802,0.48-1.398,0.48c-0.423,0-0.785-0.142-1.091-0.434c-0.307-0.292-0.46-0.649-0.46-1.067
			C443.845,321.174,443.845,310.503,443.845,299.832z"/>
		<path fill="#FFFFFF" d="M131.795,285.442c0.326-0.525,0.783-0.791,1.368-0.791c0.753,0,1.329,0.368,1.728,1.099
			c1.559,3.117,3.117,6.234,4.676,9.349c-1.062,0-2.121,0-3.183,0c-1.041-2.095-2.082-4.192-3.122-6.284
			c-1.099,2.092-2.197,4.189-3.296,6.284c-1.088,0-2.176,0-3.264,0C128.4,291.882,130.098,288.662,131.795,285.442z"/>
		<path fill="#FFFFFF" d="M324.877,288.99c-1.367-0.586-2.807-0.88-4.329-0.88c-3.661,0-7.319,0-10.978,0c0,2.328,0,4.66,0,6.988
			c-1.157,0-2.308,0-3.459,0c0-2.881,0-5.767,0-8.649c0-0.41,0.147-0.765,0.444-1.062c0.3-0.3,0.673-0.447,1.127-0.447
			c4.287,0,8.579,0,12.865,0c2.048,0,3.977,0.392,5.788,1.175c1.811,0.78,3.363,1.818,4.665,3.12
			c1.301,1.298,2.328,2.814,3.083,4.555c0.187,0.431,0.347,0.867,0.491,1.309c-1.22,0-2.437,0-3.653,0
			c-0.016-0.034-0.031-0.071-0.045-0.11c-0.589-1.366-1.393-2.563-2.415-3.588C327.435,290.378,326.243,289.574,324.877,288.99z"/>
		<path fill="#FFFFFF" d="M155.607,332.698c-0.666,0-1.114-0.268-1.346-0.799c-1.583-3.167-3.167-6.331-4.752-9.501
			c-11.17,0-22.339,0-33.51,0c-1.671,3.17-3.346,6.334-5.02,9.501c-0.5,0.736-1.273,0.941-2.318,0.618
			c-0.741-0.468-0.967-1.106-0.68-1.914c5.408-10.258,10.817-20.516,16.225-30.771c1.093,0,2.185,0,3.279,0
			c-3.391,6.466-6.78,12.932-10.17,19.399c10.353,0,20.704,0,31.057,0c-3.212-6.468-6.423-12.934-9.635-19.399
			c1.064,0,2.13,0,3.196,0c5.103,10.206,10.206,20.411,15.31,30.617c0.35,0.886,0.076,1.576-0.824,2.073
			C156.183,332.638,155.913,332.698,155.607,332.698z"/>
		<path fill="#FFFFFF" d="M436.207,299.832c0.936,0,1.869,0,2.805,0c-4.936,9.107-9.877,18.211-14.813,27.318
			c-0.321,0.513-0.831,0.771-1.535,0.771c-0.586,0-1.025-0.231-1.314-0.694c-4.923-9.133-9.846-18.264-14.771-27.395
			c0.917,0,1.834,0,2.752,0c4.494,8.014,8.991,16.027,13.482,24.041C427.279,315.859,431.744,307.846,436.207,299.832z"/>
		<path fill="#FFFFFF" d="M309.57,310.587c3.658,0,7.316,0,10.978,0c1.532,0,2.979-0.292,4.34-0.875
			c1.358-0.586,2.555-1.391,3.577-2.413c1.021-1.022,1.829-2.218,2.412-3.585c0.521-1.211,0.81-2.51,0.867-3.882
			c1.151,0,2.306,0,3.459,0c-0.092,2.828-0.928,5.372-2.505,7.627c-1.674,2.397-3.731,4.066-6.182,5.01
			c2.878,6.36,5.754,12.724,8.629,19.084c0.126,0.387,0.126,0.783-0.005,1.186c-0.127,0.404-0.539,0.701-1.228,0.891
			c-0.174,0.005-0.353,0.008-0.536,0.008c-0.755,0-1.268-0.273-1.546-0.819c-2.854-6.477-5.708-12.955-8.563-19.432
			c-0.662,0.247-1.577,0.371-2.752,0.371c-3.648,0-7.299,0-10.946,0c0,6.029,0,12.059,0,18.09c0,0.357-0.174,0.697-0.511,1.021
			c-0.341,0.32-0.783,0.48-1.332,0.48c-0.468,0-0.854-0.142-1.159-0.434s-0.458-0.649-0.458-1.072c0-10.671,0-21.339,0-32.01
			c1.152,0,2.302,0,3.459,0C309.57,303.417,309.57,306.999,309.57,310.587z"/>
		<path fill="#FFFFFF" d="M406.679,295.099c-0.883,0-1.769,0-2.654,0c-0.749-1.391-1.501-2.78-2.25-4.174c0,1.394,0,2.783,0,4.174
			c-1.151,0-2.305,0-3.459,0c0-2.794,0-5.593,0-8.387c0-0.805,0.416-1.299,1.249-1.487c0.951-0.137,1.689,0.241,2.21,1.13
			C403.409,289.27,405.044,292.184,406.679,295.099z"/>
		<path fill="#FFFFFF" d="M401.774,331.847c0,0.345-0.168,0.681-0.499,1.01c-0.334,0.328-0.791,0.491-1.372,0.491
			c-0.455,0-0.833-0.145-1.136-0.441c-0.302-0.294-0.452-0.649-0.452-1.06c0-10.673,0-21.344,0-32.015c1.154,0,2.308,0,3.459,0
			C401.774,310.503,401.774,321.174,401.774,331.847z"/>
		<path fill="#FFFFFF" d="M366.057,285.442c0.331-0.525,0.783-0.791,1.372-0.791c0.751,0,1.327,0.368,1.729,1.099
			c1.556,3.117,3.114,6.234,4.67,9.349c-1.057,0-2.121,0-3.178,0c-1.04-2.095-2.084-4.192-3.125-6.284
			c-1.099,2.092-2.197,4.189-3.296,6.284c-1.088,0-2.176,0-3.264,0C362.663,291.882,364.361,288.662,366.057,285.442z"/>
		<path fill="#FFFFFF" d="M389.871,332.698c-0.665,0-1.117-0.268-1.346-0.799c-1.585-3.167-3.17-6.331-4.752-9.501
			c-11.17,0-22.34,0-33.508,0c-1.677,3.17-3.349,6.334-5.022,9.501c-0.502,0.736-1.274,0.941-2.315,0.618
			c-0.744-0.468-0.973-1.106-0.681-1.914c5.406-10.258,10.815-20.516,16.225-30.771c1.091,0,2.187,0,3.277,0
			c-3.388,6.466-6.778,12.932-10.172,19.399c10.353,0,20.708,0,31.059,0c-3.212-6.468-6.424-12.934-9.638-19.399
			c1.069,0,2.131,0,3.198,0c5.104,10.206,10.208,20.411,15.307,30.617c0.355,0.886,0.076,1.576-0.822,2.073
			C390.446,332.638,390.176,332.698,389.871,332.698z"/>
		<path fill="#FFFFFF" d="M168.375,331.702c0,0.329-0.16,0.687-0.479,1.072c-0.319,0.384-0.774,0.573-1.361,0.573
			c-0.465,0-0.85-0.142-1.158-0.434c-0.305-0.292-0.459-0.649-0.459-1.067c0-10.673,0-21.344,0-32.015c1.153,0,2.305,0,3.458,0
			C168.375,310.456,168.375,321.079,168.375,331.702z"/>
		<path fill="#FFFFFF" d="M267.294,295.099c-1.396,0-2.792,0-4.185,0c0.836-1.212,1.777-2.342,2.823-3.383
			c2.176-2.165,4.742-3.885,7.698-5.156c2.957-1.27,6.079-1.908,9.375-1.908c2.944,0,5.772,0.502,8.489,1.503
			c2.718,1.002,5.146,2.418,7.291,4.248c0.378,0.37,0.589,0.728,0.641,1.072c0.047,0.344-0.116,0.717-0.499,1.114
			c-0.294,0.286-0.72,0.457-1.272,0.513c-0.557,0.055-1.059-0.082-1.508-0.41c-1.861-1.562-3.924-2.763-6.198-3.606
			c-2.271-0.844-4.646-1.262-7.127-1.262c-2.786,0-5.409,0.536-7.88,1.609c-2.468,1.072-4.642,2.555-6.523,4.446
			C268.025,294.271,267.652,294.678,267.294,295.099z"/>
		<path fill="#FFFFFF" d="M296.026,324.977c0-4.988,0-9.979,0-14.968c-2.544,0-5.085,0-7.627,0c-0.405,0-0.752-0.14-1.052-0.421
			c-0.299-0.283-0.449-0.659-0.449-1.133c0-0.452,0.15-0.833,0.444-1.146s0.646-0.468,1.057-0.468c3.369,0,6.739,0,10.108,0
			c-0.116,0.073-0.226,0.147-0.336,0.224c0.231-0.11,0.5-0.021,0.799,0.263c0.341,0.326,0.512,0.688,0.512,1.083
			c0,5.605,0,11.207,0,16.813c0,0.615-0.187,1.007-0.56,1.175c0,0.292-0.182,0.592-0.547,0.899c-2.21,1.789-4.625,3.148-7.243,4.081
			c-2.623,0.931-5.359,1.396-8.213,1.396c-3.304,0-6.421-0.633-9.354-1.899c-2.933-1.27-5.485-2.983-7.654-5.154
			c-2.171-2.166-3.887-4.705-5.156-7.619c-1.267-2.918-1.903-6.045-1.903-9.389c0-3.148,0.567-6.108,1.7-8.881
			c1.238,0,2.473,0,3.708,0c-0.105,0.227-0.21,0.455-0.31,0.687c-1.093,2.536-1.64,5.27-1.64,8.194c0,2.928,0.549,5.664,1.646,8.203
			c1.099,2.539,2.586,4.755,4.468,6.645c1.882,1.887,4.053,3.366,6.518,4.438c2.463,1.07,5.094,1.606,7.89,1.606
			c2.386,0,4.705-0.392,6.949-1.175c2.245-0.781,4.308-1.938,6.187-3.465C295.99,324.972,296.005,324.974,296.026,324.977z"/>
		<path fill="#FFFFFF" d="M296.026,324.977c0-4.988,0-9.979,0-14.968c-2.544,0-5.085,0-7.627,0c-0.405,0-0.752-0.14-1.052-0.421
			c-0.299-0.283-0.449-0.659-0.449-1.133c0-0.452,0.15-0.833,0.444-1.146s0.646-0.468,1.057-0.468c3.369,0,6.739,0,10.108,0
			c-0.116,0.073-0.226,0.147-0.336,0.224c0.231-0.11,0.5-0.021,0.799,0.263c0.341,0.326,0.512,0.688,0.512,1.083
			c0,5.605,0,11.207,0,16.813c0,0.615-0.187,1.007-0.56,1.175c0,0.292-0.182,0.592-0.547,0.899c-2.21,1.789-4.625,3.148-7.243,4.081
			c-2.623,0.931-5.359,1.396-8.213,1.396c-3.304,0-6.421-0.633-9.354-1.899c-2.933-1.27-5.485-2.983-7.654-5.154
			c-2.171-2.166-3.887-4.705-5.156-7.619c-1.267-2.918-1.903-6.045-1.903-9.389c0-3.148,0.567-6.108,1.7-8.881
			c1.238,0,2.473,0,3.708,0c-0.105,0.227-0.21,0.455-0.31,0.687c-1.093,2.536-1.64,5.27-1.64,8.194c0,2.928,0.549,5.664,1.646,8.203
			c1.099,2.539,2.586,4.755,4.468,6.645c1.882,1.887,4.053,3.366,6.518,4.438c2.463,1.07,5.094,1.606,7.89,1.606
			c2.386,0,4.705-0.392,6.949-1.175c2.245-0.781,4.308-1.938,6.187-3.465C295.99,324.972,296.005,324.974,296.026,324.977z"/>
		<path fill="#FFFFFF" d="M267.294,295.099c-1.396,0-2.792,0-4.185,0c0.836-1.212,1.777-2.342,2.823-3.383
			c2.176-2.165,4.742-3.885,7.698-5.156c2.957-1.27,6.079-1.908,9.375-1.908c2.944,0,5.772,0.502,8.489,1.503
			c2.718,1.002,5.146,2.418,7.291,4.248c0.378,0.37,0.589,0.728,0.641,1.072c0.047,0.344-0.116,0.717-0.499,1.114
			c-0.294,0.286-0.72,0.457-1.272,0.513c-0.557,0.055-1.059-0.082-1.508-0.41c-1.861-1.562-3.924-2.763-6.198-3.606
			c-2.271-0.844-4.646-1.262-7.127-1.262c-2.786,0-5.409,0.536-7.88,1.609c-2.468,1.072-4.642,2.555-6.523,4.446
			C268.025,294.271,267.652,294.678,267.294,295.099z"/>
		<path fill="#FFFFFF" d="M168.375,331.702c0,0.329-0.16,0.687-0.479,1.072c-0.319,0.384-0.774,0.573-1.361,0.573
			c-0.465,0-0.85-0.142-1.158-0.434c-0.305-0.292-0.459-0.649-0.459-1.067c0-10.673,0-21.344,0-32.015c1.153,0,2.305,0,3.458,0
			C168.375,310.456,168.375,321.079,168.375,331.702z"/>
		<path fill="#FFFFFF" d="M389.871,332.698c-0.665,0-1.117-0.268-1.346-0.799c-1.585-3.167-3.17-6.331-4.752-9.501
			c-11.17,0-22.34,0-33.508,0c-1.677,3.17-3.349,6.334-5.022,9.501c-0.502,0.736-1.274,0.941-2.315,0.618
			c-0.744-0.468-0.973-1.106-0.681-1.914c5.406-10.258,10.815-20.516,16.225-30.771c1.091,0,2.187,0,3.277,0
			c-3.388,6.466-6.778,12.932-10.172,19.399c10.353,0,20.708,0,31.059,0c-3.212-6.468-6.424-12.934-9.638-19.399
			c1.069,0,2.131,0,3.198,0c5.104,10.206,10.208,20.411,15.307,30.617c0.355,0.886,0.076,1.576-0.822,2.073
			C390.446,332.638,390.176,332.698,389.871,332.698z"/>
		<path fill="#FFFFFF" d="M366.057,285.442c0.331-0.525,0.783-0.791,1.372-0.791c0.751,0,1.327,0.368,1.729,1.099
			c1.556,3.117,3.114,6.234,4.67,9.349c-1.057,0-2.121,0-3.178,0c-1.04-2.095-2.084-4.192-3.125-6.284
			c-1.099,2.092-2.197,4.189-3.296,6.284c-1.088,0-2.176,0-3.264,0C362.663,291.882,364.361,288.662,366.057,285.442z"/>
		<path fill="#FFFFFF" d="M401.774,331.847c0,0.345-0.168,0.681-0.499,1.01c-0.334,0.328-0.791,0.491-1.372,0.491
			c-0.455,0-0.833-0.145-1.136-0.441c-0.302-0.294-0.452-0.649-0.452-1.06c0-10.673,0-21.344,0-32.015c1.154,0,2.308,0,3.459,0
			C401.774,310.503,401.774,321.174,401.774,331.847z"/>
		<path fill="#FFFFFF" d="M406.679,295.099c-0.883,0-1.769,0-2.654,0c-0.749-1.391-1.501-2.78-2.25-4.174c0,1.394,0,2.783,0,4.174
			c-1.151,0-2.305,0-3.459,0c0-2.794,0-5.593,0-8.387c0-0.805,0.416-1.299,1.249-1.487c0.951-0.137,1.689,0.241,2.21,1.13
			C403.409,289.27,405.044,292.184,406.679,295.099z"/>
		<path fill="#FFFFFF" d="M309.57,310.587c3.658,0,7.316,0,10.978,0c1.532,0,2.979-0.292,4.34-0.875
			c1.358-0.586,2.555-1.391,3.577-2.413c1.021-1.022,1.829-2.218,2.412-3.585c0.521-1.211,0.81-2.51,0.867-3.882
			c1.151,0,2.306,0,3.459,0c-0.092,2.828-0.928,5.372-2.505,7.627c-1.674,2.397-3.731,4.066-6.182,5.01
			c2.878,6.36,5.754,12.724,8.629,19.084c0.126,0.387,0.126,0.783-0.005,1.186c-0.127,0.404-0.539,0.701-1.228,0.891
			c-0.174,0.005-0.353,0.008-0.536,0.008c-0.755,0-1.268-0.273-1.546-0.819c-2.854-6.477-5.708-12.955-8.563-19.432
			c-0.662,0.247-1.577,0.371-2.752,0.371c-3.648,0-7.299,0-10.946,0c0,6.029,0,12.059,0,18.09c0,0.357-0.174,0.697-0.511,1.021
			c-0.341,0.32-0.783,0.48-1.332,0.48c-0.468,0-0.854-0.142-1.159-0.434s-0.458-0.649-0.458-1.072c0-10.671,0-21.339,0-32.01
			c1.152,0,2.302,0,3.459,0C309.57,303.417,309.57,306.999,309.57,310.587z"/>
		<path fill="#FFFFFF" d="M436.207,299.832c0.936,0,1.869,0,2.805,0c-4.936,9.107-9.877,18.211-14.813,27.318
			c-0.321,0.513-0.831,0.771-1.535,0.771c-0.586,0-1.025-0.231-1.314-0.694c-4.923-9.133-9.846-18.264-14.771-27.395
			c0.917,0,1.834,0,2.752,0c4.494,8.014,8.991,16.027,13.482,24.041C427.279,315.859,431.744,307.846,436.207,299.832z"/>
		<path fill="#FFFFFF" d="M155.607,332.698c-0.666,0-1.114-0.268-1.346-0.799c-1.583-3.167-3.167-6.331-4.752-9.501
			c-11.17,0-22.339,0-33.51,0c-1.671,3.17-3.346,6.334-5.02,9.501c-0.5,0.736-1.273,0.941-2.318,0.618
			c-0.741-0.468-0.967-1.106-0.68-1.914c5.408-10.258,10.817-20.516,16.225-30.771c1.093,0,2.185,0,3.279,0
			c-3.391,6.466-6.78,12.932-10.17,19.399c10.353,0,20.704,0,31.057,0c-3.212-6.468-6.423-12.934-9.635-19.399
			c1.064,0,2.13,0,3.196,0c5.103,10.206,10.206,20.411,15.31,30.617c0.35,0.886,0.076,1.576-0.824,2.073
			C156.183,332.638,155.913,332.698,155.607,332.698z"/>
		<path fill="#FFFFFF" d="M324.877,288.99c-1.367-0.586-2.807-0.88-4.329-0.88c-3.661,0-7.319,0-10.978,0c0,2.328,0,4.66,0,6.988
			c-1.157,0-2.308,0-3.459,0c0-2.881,0-5.767,0-8.649c0-0.41,0.147-0.765,0.444-1.062c0.3-0.3,0.673-0.447,1.127-0.447
			c4.287,0,8.579,0,12.865,0c2.048,0,3.977,0.392,5.788,1.175c1.811,0.78,3.363,1.818,4.665,3.12
			c1.301,1.298,2.328,2.814,3.083,4.555c0.187,0.431,0.347,0.867,0.491,1.309c-1.22,0-2.437,0-3.653,0
			c-0.016-0.034-0.031-0.071-0.045-0.11c-0.589-1.366-1.393-2.563-2.415-3.588C327.435,290.378,326.243,289.574,324.877,288.99z"/>
		<path fill="#FFFFFF" d="M131.795,285.442c0.326-0.525,0.783-0.791,1.368-0.791c0.753,0,1.329,0.368,1.728,1.099
			c1.559,3.117,3.117,6.234,4.676,9.349c-1.062,0-2.121,0-3.183,0c-1.041-2.095-2.082-4.192-3.122-6.284
			c-1.099,2.092-2.197,4.189-3.296,6.284c-1.088,0-2.176,0-3.264,0C128.4,291.882,130.098,288.662,131.795,285.442z"/>
		<path fill="#FFFFFF" d="M443.845,299.832c1.154,0,2.306,0,3.457,0c0,10.671,0,21.342,0,32.015c0,0.357-0.169,0.697-0.508,1.021
			c-0.336,0.32-0.802,0.48-1.398,0.48c-0.423,0-0.785-0.142-1.091-0.434c-0.307-0.292-0.46-0.649-0.46-1.067
			C443.845,321.174,443.845,310.503,443.845,299.832z"/>
		<path fill="#FFFFFF" d="M443.903,286.021c0.145-0.323,0.407-0.563,0.785-0.709c0.382-0.15,0.783-0.171,1.199-0.066
			c0.943,0.213,1.414,0.699,1.414,1.467c0,2.794,0,5.593,0,8.387c-1.151,0-2.303,0-3.457,0c0-1.391,0-2.78,0-4.174
			c-0.754,1.394-1.511,2.783-2.265,4.174c-0.91,0-1.822,0-2.736,0C440.531,292.073,442.219,289.046,443.903,286.021z"/>
		<path fill="#FFFFFF" d="M235.229,295.099c-1.057,0-2.118,0-3.18,0c-1.041-2.095-2.082-4.192-3.123-6.284
			c-1.099,2.092-2.197,4.189-3.296,6.284c-1.088,0-2.176,0-3.264,0c1.698-3.217,3.396-6.437,5.094-9.656
			c0.326-0.525,0.783-0.791,1.367-0.791c0.757,0,1.33,0.368,1.729,1.099C232.118,288.867,233.673,291.984,235.229,295.099z"/>
		<path fill="#FFFFFF" d="M193.854,327.944c-0.026-9.373-0.055-18.742-0.083-28.112c1.158,0,2.315,0,3.473,0
			c0.043,10.671,0.086,21.342,0.131,32.015c0,0.681-0.462,1.181-1.388,1.501c-0.175,0-0.351,0-0.527,0
			c-0.651,0-1.119-0.302-1.4-0.912c-6.652-10.867-13.304-21.735-19.956-32.604c0.87,0,1.74,0,2.61,0
			C182.429,309.202,188.14,318.571,193.854,327.944z"/>
		<path fill="#FFFFFF" d="M495.015,319.231c-3.212-6.468-6.426-12.934-9.638-19.399c1.064,0,2.132,0,3.198,0
			c5.102,10.206,10.206,20.411,15.308,30.617c0.35,0.886,0.076,1.576-0.825,2.073c-0.231,0.115-0.505,0.176-0.81,0.176
			c-0.668,0-1.114-0.268-1.346-0.799c-1.582-3.167-3.167-6.331-4.752-9.501c-11.17,0-22.341,0-33.511,0
			c-1.671,3.17-3.343,6.334-5.02,9.501c-0.5,0.736-1.272,0.941-2.315,0.618c-0.744-0.468-0.97-1.106-0.684-1.914
			c5.409-10.258,10.82-20.516,16.227-30.771c1.091,0,2.187,0,3.277,0c-3.39,6.466-6.78,12.932-10.171,19.399
			C474.31,319.231,484.659,319.231,495.015,319.231z"/>
		<path fill="#FFFFFF" d="M473.342,295.099c1.701-3.217,3.396-6.437,5.094-9.656c0.329-0.525,0.783-0.791,1.367-0.791
			c0.757,0,1.329,0.368,1.731,1.099c1.559,3.117,3.117,6.234,4.673,9.349c-1.062,0-2.12,0-3.18,0
			c-1.044-2.095-2.084-4.192-3.125-6.284c-1.099,2.092-2.197,4.189-3.293,6.284C475.519,295.099,474.431,295.099,473.342,295.099z"
			/>
		<path fill="#FFFFFF" d="M251.272,332.698c-0.667,0-1.114-0.268-1.346-0.799c-1.582-3.167-3.167-6.331-4.752-9.501
			c-11.17,0-22.34,0-33.509,0c-1.674,3.17-3.347,6.334-5.02,9.501c-0.502,0.736-1.275,0.941-2.32,0.618
			c-0.741-0.468-0.968-1.106-0.679-1.914c5.409-10.258,10.816-20.516,16.223-30.771c1.093,0,2.187,0,3.28,0
			c-3.391,6.466-6.781,12.932-10.171,19.399c10.355,0,20.706,0,31.061,0c-3.214-6.468-6.426-12.934-9.641-19.399
			c1.067,0,2.134,0,3.199,0c5.102,10.206,10.206,20.411,15.31,30.617c0.352,0.886,0.076,1.576-0.825,2.073
			C251.851,332.638,251.577,332.698,251.272,332.698z"/>
		<path fill="#FFFFFF" d="M197.225,295.099c-1.155,0-2.312,0-3.468,0c-0.008-2.794-0.016-5.59-0.024-8.384
			c0-0.416,0.157-0.768,0.471-1.064c0.313-0.295,0.695-0.444,1.146-0.444c0.533,0,0.975,0.163,1.322,0.494
			c0.346,0.328,0.519,0.665,0.519,1.012C197.203,289.506,197.213,292.305,197.225,295.099z"/>
		<path fill="#FFFFFF" d="M173.829,295.099c-0.873,0-1.746,0-2.62,0c-0.943-1.543-1.889-3.086-2.833-4.628c0,1.542,0,3.085,0,4.628
			c-1.152,0-2.305,0-3.458,0c0-2.794,0-5.593,0-8.387c0-0.73,0.393-1.223,1.18-1.479c0.887-0.14,1.604,0.097,2.147,0.707
			C170.108,288.993,171.969,292.047,173.829,295.099z"/>
	</g>
	<line fill="none" x1="512.484" y1="146.786" x2="560.587" y2="147.795"/>
</g>
</svg>
